<?xml version="1.0" encoding="UTF-8"?>
<svg id="Layer_1" data-name="Layer 1" xmlns="http://www.w3.org/2000/svg" xmlns:xlink="http://www.w3.org/1999/xlink" viewBox="0 0 190.238 163.816">
  <defs>
    <style>
      .cls-1 {
        fill: none;
      }

      .cls-2 {
        fill: #fff;
      }

      .cls-3 {
        clip-path: url(#clippath);
      }
    </style>
    <clipPath id="clippath">
      <rect class="cls-1" x="24.592" y="10.665" width="148.41" height="143.997"/>
    </clipPath>
  </defs>
  <g class="cls-3">
    <path class="cls-2" d="M162.632,142.973c-.012-1.427.289-2.539.903-3.338.602-.786,1.343-1.179,2.222-1.179.832,0,1.548.378,2.15,1.134.603.756.922,1.883.958,3.383h-6.233ZM165.966,150.868c-.93,0-1.724-.417-2.383-1.251-.658-.835-.999-2.013-1.023-3.537h10.424l.018-.579c0-3.715-.735-6.526-2.204-8.432-1.277-1.665-3.041-2.497-5.293-2.497-2.024,0-3.674.814-4.951,2.443-1.505,1.931-2.258,4.501-2.258,7.71,0,3.258.748,5.792,2.243,7.602,1.266,1.556,3.063,2.335,5.391,2.335,1.676,0,3.099-.467,4.268-1.4,1.17-.934,2.032-2.364,2.587-4.291l-4.137-.849c-.447,1.831-1.341,2.746-2.682,2.746M152.19,148.277c0-3.002.096-5.064.289-6.186.193-1.121.509-1.896.949-2.324.439-.428.948-.642,1.526-.642.615,0,1.265.277,1.952.831l1.3-4.427c-.867-.638-1.776-.957-2.728-.957-.686,0-1.291.211-1.815.632-.524.422-1.118,1.271-1.78,2.548v-2.729h-3.866v19.187h4.173v-5.933ZM140.395,146.011c0,1.462-.112,2.471-.334,3.026-.223.556-.624,1.036-1.202,1.441-.578.404-1.162.607-1.752.607-.663,0-1.214-.251-1.653-.753-.44-.501-.66-1.12-.66-1.857,0-.652.199-1.184.597-1.594.397-.411,1.24-.786,2.529-1.124,1.12-.29,1.945-.544,2.475-.761v1.015ZM135.869,138.962c.428-.337,1.015-.506,1.762-.506.734,0,1.303.106,1.707.318.403.212.68.485.831.818s.226,1.032.226,2.098c-.759.386-2.102.802-4.029,1.248-1.59.374-2.746.803-3.469,1.285-.722.482-1.282,1.128-1.68,1.936-.397.808-.596,1.755-.596,2.84,0,1.713.488,3.085,1.463,4.116.976,1.031,2.229,1.547,3.758,1.547.915,0,1.78-.214,2.593-.642.813-.427,1.574-1.063,2.285-1.906l.542,2.096h4.119c-.361-.916-.608-1.781-.74-2.595-.133-.813-.199-2.052-.199-3.716l.036-5.931c0-2.242-.199-3.789-.596-4.639-.398-.849-1.06-1.521-1.987-2.016-.928-.494-2.271-.741-4.029-.741-1.976,0-3.49.424-4.544,1.273-1.054.85-1.81,2.244-2.267,4.183l3.776.831c.264-.927.611-1.56,1.038-1.897M126.315,136.035c-1.164-.975-2.668-1.463-4.513-1.463-2.28,0-4.122.86-5.527,2.579-1.404,1.719-2.107,4.226-2.107,7.52,0,2.751.62,5.104,1.861,7.059,1.24,1.954,3.144,2.932,5.709,2.932,4.011,0,6.438-2.313,7.281-6.938l-4.101-.849c-.218,1.361-.58,2.31-1.087,2.845-.508.537-1.154.804-1.939.804-1.051,0-1.89-.471-2.518-1.413-.628-.942-.942-2.555-.942-4.838,0-2.066.315-3.534.945-4.404.629-.87,1.459-1.305,2.489-1.305,1.599,0,2.55,1.006,2.853,3.018l4.101-.904c-.506-2.119-1.342-3.667-2.505-4.643M97.027,127.725v26.485h4.174v-9.622c0-2.364.297-3.976.891-4.838.595-.863,1.426-1.294,2.495-1.294,1.009,0,1.723.398,2.144,1.194.3.591.45,2.062.45,4.413v10.147h4.173v-11.266c0-2.145-.133-3.664-.397-4.557-.362-1.217-.964-2.158-1.807-2.821-.843-.663-1.891-.994-3.144-.994-.939,0-1.809.238-2.61.713-.801.476-1.533,1.196-2.195,2.159v-9.719h-4.174ZM91.508,135.023v-6.774l-4.174,2.962v3.812h-1.915v4.047h1.915v8.375c0,2.146.084,3.569.253,4.268.217.953.644,1.683,1.283,2.189.638.506,1.487.76,2.547.76,1.217,0,2.307-.253,3.27-.759l-.361-3.939c-.723.326-1.277.488-1.662.488-.518,0-.861-.241-1.03-.724-.084-.265-.126-1.236-.126-2.913v-7.745h2.836v-4.047h-2.836ZM83.119,127.725h-4.173v26.485h4.173v-26.485ZM71.199,146.011c0,1.462-.112,2.471-.334,3.026-.223.556-.624,1.036-1.202,1.441-.578.404-1.162.607-1.752.607-.663,0-1.214-.251-1.653-.753-.44-.501-.66-1.12-.66-1.857,0-.652.199-1.184.597-1.594.397-.411,1.24-.786,2.529-1.124,1.12-.29,1.945-.544,2.475-.761v1.015ZM66.673,138.962c.428-.337,1.015-.506,1.762-.506.734,0,1.303.106,1.707.318.403.212.68.485.831.818.151.333.226,1.032.226,2.098-.759.386-2.102.802-4.029,1.248-1.59.374-2.746.803-3.469,1.285-.722.482-1.282,1.128-1.68,1.936-.397.808-.596,1.755-.596,2.84,0,1.713.488,3.085,1.463,4.116.976,1.031,2.229,1.547,3.758,1.547.915,0,1.78-.214,2.593-.642.813-.427,1.574-1.063,2.285-1.906l.542,2.096h4.119c-.361-.916-.608-1.781-.74-2.595-.133-.813-.199-2.052-.199-3.716l.036-5.931c0-2.242-.199-3.789-.596-4.639-.398-.849-1.06-1.521-1.988-2.016-.927-.494-2.27-.741-4.028-.741-1.976,0-3.49.424-4.544,1.273-1.054.85-1.81,2.244-2.267,4.183l3.776.831c.264-.927.611-1.56,1.038-1.897M49.319,142.973c-.012-1.427.289-2.539.903-3.338.602-.786,1.343-1.179,2.222-1.179.831,0,1.548.378,2.15,1.134.602.756.922,1.883.958,3.383h-6.233ZM52.653,150.868c-.93,0-1.725-.417-2.383-1.251-.658-.835-.999-2.013-1.023-3.537h10.424l.018-.579c0-3.715-.735-6.526-2.204-8.432-1.277-1.665-3.042-2.497-5.294-2.497-2.023,0-3.673.814-4.95,2.443-1.506,1.931-2.258,4.501-2.258,7.71,0,3.258.747,5.792,2.243,7.602,1.266,1.556,3.063,2.335,5.39,2.335,1.677,0,3.099-.467,4.269-1.4,1.17-.934,2.032-2.364,2.587-4.291l-4.137-.849c-.447,1.831-1.341,2.746-2.682,2.746M28.964,154.21v-11.581h8.618v11.581h4.372v-26.485h-4.372v10.424h-8.618v-10.424h-4.372v26.485h4.372Z"/>
    <path class="cls-2" d="M158.511,99.825c1.145-1.349,2.527-2.024,4.147-2.024,1.799,0,3.279.81,4.441,2.429.801,1.113,1.284,2.797,1.448,5.055h-11.925c.114-2.29.744-4.11,1.889-5.46M162.854,117.773c-1.734,0-3.206-.744-4.416-2.232-1.211-1.489-1.89-3.697-2.037-6.625h15.949l.024-1.178c0-4.4-.924-7.761-2.772-10.084-1.849-2.323-4.155-3.484-6.92-3.484-2.895,0-5.287,1.182-7.177,3.545-1.889,2.364-2.833,5.795-2.833,10.293,0,4.335.936,7.652,2.809,9.95s4.322,3.447,7.349,3.447c2.404,0,4.42-.707,6.048-2.123,1.627-1.414,2.752-3.512,3.373-6.293l-3.729-.564c-1.064,3.566-2.953,5.348-5.668,5.348M149.07,120.816v-26.058h-3.632v13.962c0,3.271-.474,5.52-1.423,6.747-1.112,1.423-2.536,2.135-4.269,2.135-.933,0-1.763-.274-2.491-.822-.728-.548-1.226-1.276-1.496-2.184-.27-.908-.405-2.703-.405-5.386v-14.452h-3.607v16.145c0,2.405.2,4.303.601,5.693s1.198,2.539,2.392,3.447,2.634,1.362,4.319,1.362c1.423,0,2.699-.368,3.828-1.104,1.128-.736,2.11-1.84,2.944-3.313v3.828h3.239ZM121.21,120.816l8.128-26.058h-3.73l-4.769,15.9c-.574,1.93-1.017,3.582-1.328,4.956-.393-1.733-.852-3.484-1.377-5.25l-4.598-15.606h-3.828l8.129,26.058h3.373ZM95.162,99.825c1.145-1.349,2.528-2.024,4.147-2.024,1.799,0,3.279.81,4.441,2.429.801,1.113,1.284,2.797,1.448,5.055h-11.925c.114-2.29.744-4.11,1.889-5.46M99.505,117.773c-1.734,0-3.206-.744-4.416-2.232-1.211-1.489-1.89-3.697-2.037-6.625h15.949l.024-1.178c0-4.4-.924-7.761-2.772-10.084-1.849-2.323-4.155-3.484-6.919-3.484-2.896,0-5.288,1.182-7.177,3.545-1.89,2.364-2.834,5.795-2.834,10.293,0,4.335.936,7.652,2.809,9.95s4.322,3.447,7.349,3.447c2.404,0,4.42-.707,6.048-2.123,1.627-1.414,2.752-3.512,3.374-6.293l-3.73-.564c-1.063,3.566-2.953,5.348-5.668,5.348M85.67,84.846h-3.607v35.97h3.607v-35.97ZM77.407,84.846h-3.607v35.97h3.607v-35.97ZM56.303,99.825c1.145-1.349,2.527-2.024,4.147-2.024,1.799,0,3.279.81,4.441,2.429.801,1.113,1.284,2.797,1.448,5.055h-11.925c.114-2.29.744-4.11,1.889-5.46M60.646,117.773c-1.734,0-3.206-.744-4.416-2.232-1.211-1.489-1.89-3.697-2.037-6.625h15.949l.024-1.178c0-4.4-.924-7.761-2.772-10.084-1.849-2.323-4.155-3.484-6.92-3.484-2.895,0-5.287,1.182-7.177,3.545-1.889,2.364-2.833,5.795-2.833,10.293,0,4.335.936,7.652,2.809,9.95s4.322,3.447,7.349,3.447c2.404,0,4.42-.707,6.048-2.123,1.627-1.414,2.752-3.512,3.373-6.293l-3.729-.564c-1.064,3.566-2.953,5.348-5.668,5.348M29.122,104.205h6.832c2.016,0,3.494.217,4.437.65.942.434,1.692,1.121,2.249,2.061.557.941.835,2.09.835,3.448,0,1.472-.291,2.695-.872,3.668-.582.973-1.43,1.672-2.544,2.098-.77.294-1.966.441-3.588.441h-7.349v-12.366ZM29.122,89.091h5.924c2.147,0,3.634.163,4.462.49.827.328,1.491.92,1.991,1.779s.75,1.935.75,3.227c0,1.39-.275,2.49-.824,3.3-.549.81-1.331,1.386-2.347,1.73-.705.229-1.893.343-3.565.343h-6.391v-10.869ZM36.458,120.816c2.601,0,4.645-.372,6.134-1.117,1.488-.745,2.678-1.94,3.57-3.585.891-1.644,1.337-3.556,1.337-5.732,0-2.194-.492-4.039-1.478-5.537-.985-1.497-2.333-2.557-4.043-3.18,1.309-.8,2.323-1.863,3.043-3.187.72-1.324,1.08-2.811,1.08-4.462,0-1.782-.418-3.408-1.253-4.879-.836-1.471-1.908-2.554-3.218-3.249-1.311-.695-3.087-1.042-5.331-1.042h-11.079v35.97h11.238Z"/>
    <path class="cls-2" d="M129.491,36.789c1.044,6.88-.23,14.202-3.037,19.483-4.77,8.999-15.194,17.274-30.116,16.446-7.724-.426-13.887-3.689-18.349-7.716-4.666-4.217-8.056-9.404-9.617-16.447,8.759.648,12.639,6.173,18.096,10.122-.501-1.576-1.012-3.507-1.423-5.593-1.297-6.538-1.656-14.64,2.056-18.444,5.04-5.167,14.522-1.26,13.794,6.579-.096.996-.37,1.675-.759,2.782,4.934-2.715,13.855-1.38,14.044,5.059.07,2.294-.948,4.423-2.277,5.82-3.68,3.88-10.945,5.678-16.198,7.592,6.781.179,14.895-.443,20.754,1.012-2.035-1.846-5.891-2.963-10.124-3.036,5.109-3.122,13.555-4.302,13.666-12.399.049-3.5-1.723-6.526-4.303-8.096-3.51-2.142-9.685-1.53-12.274,1.266,1.187-2.632,2.785-6.1,2.785-9.996,0-7.163-4.625-11.945-11.135-12.272-4.013-.2-7.43,1.465-9.745,3.669-6.907,6.584-5.921,22.108-1.661,31.09.005.01.012.022.017.032-.027.142-.126.069-.126,0-4.487-5.593-8.727-11.433-15.819-14.423,1.666-13.573,8.968-22.565,19.866-26.693,13.668-5.175,27.688.686,34.421,8.35,3.642,4.143,6.474,9.299,7.464,15.813"/>
  </g>
</svg>