<?xml version="1.0" encoding="UTF-8"?>
<svg id="Layer_1" data-name="Layer 1" xmlns="http://www.w3.org/2000/svg" xmlns:xlink="http://www.w3.org/1999/xlink" viewBox="0 0 360 58.128">
  <defs>
    <style>
      .cls-1 {
        fill: none;
      }

      .cls-2 {
        clip-path: url(#clippath-1);
      }

      .cls-3 {
        clip-path: url(#clippath);
      }
    </style>
    <clipPath id="clippath">
      <rect class="cls-1" x="25.99" y="12.45" width="308.02" height="37.48"/>
    </clipPath>
    <clipPath id="clippath-1">
      <rect class="cls-1" x="71.357" y="18.462" width="262.652" height="26.937"/>
    </clipPath>
  </defs>
  <g class="cls-3">
    <path d="M63.244,28.214c.63,4.152-.139,8.57-1.832,11.757-2.878,5.43-9.167,10.424-18.169,9.924-4.66-.257-8.378-2.226-11.07-4.656-2.815-2.545-4.86-5.675-5.802-9.925,5.284.391,7.625,3.725,10.917,6.108-.302-.951-.61-2.116-.858-3.375-.783-3.945-.999-8.834,1.24-11.13,3.041-3.118,8.761-.76,8.322,3.97-.058.601-.223,1.011-.458,1.679,2.977-1.638,8.359-.833,8.473,3.053.042,1.384-.572,2.669-1.374,3.512-2.22,2.341-6.603,3.426-9.772,4.581,4.091.108,8.986-.267,12.521.611-1.228-1.114-3.554-1.788-6.108-1.832,3.082-1.884,8.178-2.596,8.245-7.482.029-2.112-1.04-3.938-2.596-4.886-2.118-1.292-5.843-.923-7.405.764.716-1.588,1.68-3.681,1.68-6.032,0-4.322-2.79-7.208-6.718-7.405-2.421-.121-4.482.884-5.879,2.214-4.167,3.973-3.572,13.341-1.002,18.761.003.006.007.013.01.019-.016.086-.076.042-.076,0-2.707-3.375-5.265-6.899-9.543-8.703,1.005-8.191,5.41-13.617,11.985-16.108,8.246-3.123,16.704.414,20.766,5.039,2.197,2.5,3.906,5.611,4.503,9.542"/>
  </g>
  <g class="cls-2">
    <path d="M79.632,44.948c1.915,0,3.42-.274,4.517-.823,1.095-.548,1.972-1.428,2.628-2.639.657-1.211.985-2.618.985-4.221,0-1.615-.363-2.974-1.088-4.077-.726-1.102-1.718-1.883-2.977-2.341.963-.59,1.71-1.372,2.24-2.347.53-.975.795-2.07.795-3.285,0-1.312-.308-2.51-.922-3.593-.616-1.083-1.405-1.881-2.37-2.392-.965-.512-2.273-.767-3.925-.767h-8.157v26.485h8.274ZM74.23,21.588h4.362c1.581,0,2.676.121,3.286.361.609.242,1.097.678,1.466,1.31.368.633.552,1.425.552,2.376,0,1.024-.202,1.834-.607,2.43-.404.596-.98,1.021-1.728,1.274-.519.168-1.394.253-2.625.253h-4.706v-8.004ZM74.23,32.717h5.031c1.484,0,2.573.16,3.267.479s1.245.825,1.656,1.517c.41.693.615,1.539.615,2.539,0,1.084-.214,1.984-.642,2.701-.429.716-1.053,1.231-1.873,1.544-.568.217-1.448.326-2.643.326h-5.411v-9.106ZM97.579,42.708c-1.277,0-2.361-.548-3.252-1.644-.891-1.096-1.391-2.722-1.5-4.878h11.744l.018-.867c0-3.24-.681-5.715-2.042-7.426-1.361-1.71-3.059-2.565-5.095-2.565-2.131,0-3.893.87-5.284,2.61-1.391,1.741-2.087,4.267-2.087,7.579,0,3.192.69,5.634,2.069,7.326,1.379,1.693,3.183,2.539,5.411,2.539,1.77,0,3.255-.521,4.453-1.563,1.199-1.042,2.027-2.586,2.484-4.634l-2.746-.416c-.783,2.626-2.174,3.939-4.173,3.939M94.381,29.492c.843-.993,1.861-1.49,3.053-1.49,1.325,0,2.415.596,3.27,1.788.59.819.946,2.06,1.066,3.722h-8.78c.084-1.686.548-3.026,1.391-4.02M110.054,18.463h-2.656v26.485h2.656v-26.485ZM116.282,18.463h-2.656v26.485h2.656v-26.485ZM126.602,42.708c-1.277,0-2.361-.548-3.252-1.644-.891-1.096-1.391-2.722-1.499-4.878h11.743l.018-.867c0-3.24-.681-5.715-2.042-7.426-1.361-1.71-3.059-2.565-5.094-2.565-2.132,0-3.894.87-5.285,2.61-1.391,1.741-2.086,4.267-2.086,7.579,0,3.192.689,5.634,2.068,7.326,1.379,1.693,3.183,2.539,5.411,2.539,1.771,0,3.255-.521,4.454-1.563,1.198-1.042,2.026-2.586,2.484-4.634l-2.746-.416c-.784,2.626-2.175,3.939-4.174,3.939M123.404,29.492c.843-.993,1.861-1.49,3.054-1.49,1.324,0,2.414.596,3.27,1.788.59.819.945,2.06,1.066,3.722h-8.781c.084-1.686.548-3.026,1.391-4.02M142.735,44.948l5.985-19.187h-2.746l-3.512,11.708c-.423,1.421-.748,2.637-.978,3.649-.289-1.277-.627-2.566-1.013-3.866l-3.386-11.491h-2.818l5.985,19.187h2.483ZM163.382,44.948v-19.187h-2.674v10.28c0,2.409-.349,4.065-1.048,4.969-.819,1.047-1.867,1.571-3.143,1.571-.687,0-1.298-.201-1.834-.605-.536-.403-.903-.939-1.102-1.608-.199-.668-.298-1.99-.298-3.965v-10.642h-2.656v11.888c0,1.771.148,3.168.443,4.192.295,1.023.882,1.869,1.761,2.538.879.668,1.939,1.003,3.18,1.003,1.048,0,1.987-.271,2.818-.813.831-.542,1.554-1.355,2.168-2.439v2.818h2.385ZM173.672,42.708c-1.276,0-2.36-.548-3.252-1.644-.891-1.096-1.391-2.722-1.499-4.878h11.743l.018-.867c0-3.24-.68-5.715-2.041-7.426-1.362-1.71-3.06-2.565-5.095-2.565-2.132,0-3.893.87-5.285,2.61-1.391,1.741-2.086,4.267-2.086,7.579,0,3.192.689,5.634,2.068,7.326,1.379,1.693,3.183,2.539,5.411,2.539,1.771,0,3.255-.521,4.454-1.563,1.198-1.042,2.026-2.586,2.484-4.634l-2.746-.416c-.783,2.626-2.175,3.939-4.174,3.939M170.475,29.492c.842-.993,1.86-1.49,3.053-1.49,1.325,0,2.414.596,3.27,1.788.59.819.945,2.06,1.066,3.722h-8.781c.085-1.686.548-3.026,1.392-4.02M188.381,44.948v-11.581h8.617v11.581h4.372v-26.485h-4.372v10.424h-8.617v-10.424h-4.372v26.485h4.372ZM212.255,41.606c-.931,0-1.725-.417-2.383-1.251-.659-.835-1-2.013-1.024-3.537h10.424l.018-.579c0-3.715-.734-6.526-2.204-8.432-1.276-1.665-3.041-2.497-5.293-2.497-2.024,0-3.674.814-4.95,2.443-1.506,1.931-2.259,4.501-2.259,7.71,0,3.258.748,5.792,2.243,7.602,1.267,1.556,3.063,2.335,5.391,2.335,1.676,0,3.099-.467,4.269-1.4,1.17-.934,2.032-2.364,2.587-4.291l-4.138-.849c-.447,1.831-1.34,2.746-2.681,2.746M208.92,33.711c-.012-1.427.289-2.539.904-3.338.602-.786,1.343-1.179,2.222-1.179.831,0,1.547.378,2.15,1.134.602.756.921,1.883.957,3.383h-6.233ZM226.46,29.7c.427-.337,1.014-.506,1.761-.506.735,0,1.304.106,1.708.318.403.212.68.485.831.818.15.333.226,1.032.226,2.098-.759.386-2.102.802-4.029,1.248-1.59.374-2.746.803-3.469,1.285-.723.482-1.283,1.128-1.68,1.936-.398.808-.596,1.755-.596,2.84,0,1.713.487,3.085,1.463,4.116s2.228,1.547,3.758,1.547c.915,0,1.779-.214,2.592-.642.813-.427,1.575-1.063,2.286-1.906l.542,2.096h4.119c-.361-.916-.608-1.781-.741-2.595-.133-.813-.199-2.052-.199-3.716l.037-5.931c0-2.242-.199-3.789-.597-4.639-.397-.849-1.06-1.521-1.987-2.016-.928-.494-2.27-.741-4.029-.741-1.975,0-3.49.424-4.543,1.273-1.054.85-1.81,2.244-2.268,4.183l3.776.831c.265-.927.611-1.56,1.039-1.897M230.986,36.749c0,1.462-.112,2.471-.335,3.026-.223.556-.623,1.036-1.201,1.441-.578.404-1.163.607-1.753.607-.662,0-1.213-.251-1.653-.753-.439-.501-.659-1.12-.659-1.857,0-.652.199-1.184.596-1.594.398-.411,1.241-.786,2.529-1.124,1.121-.29,1.945-.544,2.476-.761v1.015ZM243.091,18.463h-4.173v26.485h4.173v-26.485ZM251.664,25.761v-6.774l-4.173,2.962v3.812h-1.915v4.047h1.915v8.375c0,2.146.084,3.569.253,4.268.217.953.644,1.683,1.283,2.189.638.506,1.487.76,2.547.76,1.216,0,2.306-.253,3.27-.759l-.361-3.939c-.723.326-1.277.488-1.663.488-.518,0-.861-.241-1.029-.724-.085-.265-.127-1.236-.127-2.913v-7.745h2.837v-4.047h-2.837ZM257.369,18.463v26.485h4.173v-9.622c0-2.364.297-3.976.892-4.838.594-.863,1.426-1.294,2.495-1.294,1.008,0,1.723.398,2.143,1.194.3.591.45,2.062.45,4.413v10.147h4.174v-11.266c0-2.145-.133-3.664-.398-4.557-.361-1.217-.963-2.158-1.806-2.821-.844-.663-1.891-.994-3.144-.994-.939,0-1.81.238-2.611.713-.801.476-1.532,1.196-2.195,2.159v-9.719h-4.173ZM286.841,26.773c-1.164-.975-2.668-1.463-4.513-1.463-2.279,0-4.121.86-5.526,2.579s-2.107,4.226-2.107,7.52c0,2.751.62,5.104,1.861,7.059,1.24,1.954,3.143,2.932,5.709,2.932,4.01,0,6.437-2.313,7.28-6.938l-4.101-.849c-.217,1.361-.58,2.31-1.087,2.845-.507.537-1.153.804-1.938.804-1.051,0-1.89-.471-2.519-1.413-.628-.942-.942-2.555-.942-4.838,0-2.066.315-3.534.945-4.404.63-.87,1.46-1.305,2.49-1.305,1.599,0,2.55,1.006,2.853,3.018l4.101-.904c-.507-2.119-1.342-3.667-2.506-4.643M296.581,29.7c.427-.337,1.014-.506,1.761-.506.735,0,1.304.106,1.708.318.403.212.68.485.831.818.15.333.226,1.032.226,2.098-.759.386-2.102.802-4.029,1.248-1.59.374-2.746.803-3.469,1.285-.723.482-1.283,1.128-1.68,1.936-.398.808-.596,1.755-.596,2.84,0,1.713.487,3.085,1.463,4.116.976,1.031,2.228,1.547,3.758,1.547.915,0,1.779-.214,2.592-.642.813-.427,1.575-1.063,2.286-1.906l.542,2.096h4.119c-.361-.916-.608-1.781-.741-2.595-.132-.813-.199-2.052-.199-3.716l.037-5.931c0-2.242-.199-3.789-.597-4.639-.397-.849-1.06-1.521-1.987-2.016-.928-.494-2.27-.741-4.029-.741-1.975,0-3.49.424-4.543,1.273-1.054.85-1.81,2.244-2.268,4.183l3.776.831c.265-.927.611-1.56,1.039-1.897M301.107,36.749c0,1.462-.112,2.471-.335,3.026-.223.556-.623,1.036-1.201,1.441-.578.404-1.163.607-1.753.607-.662,0-1.213-.251-1.653-.753-.439-.501-.659-1.12-.659-1.857,0-.652.199-1.184.596-1.594.398-.411,1.241-.786,2.529-1.124,1.121-.29,1.945-.544,2.476-.761v1.015ZM313.087,39.015c0-3.002.096-5.064.289-6.186.192-1.121.509-1.896.948-2.324.44-.428.949-.642,1.527-.642.614,0,1.265.277,1.951.831l1.301-4.427c-.867-.638-1.777-.957-2.728-.957-.687,0-1.292.211-1.816.632-.524.422-1.117,1.271-1.779,2.548v-2.729h-3.867v19.187h4.174v-5.933ZM327.048,41.606c-.93,0-1.725-.417-2.383-1.251-.658-.835-1-2.013-1.024-3.537h10.425l.018-.579c0-3.715-.735-6.526-2.204-8.432-1.277-1.665-3.042-2.497-5.294-2.497-2.023,0-3.674.814-4.95,2.443-1.506,1.931-2.258,4.501-2.258,7.71,0,3.258.747,5.792,2.243,7.602,1.266,1.556,3.063,2.335,5.39,2.335,1.676,0,3.099-.467,4.269-1.4,1.17-.934,2.032-2.364,2.587-4.291l-4.137-.849c-.447,1.831-1.341,2.746-2.682,2.746M323.714,33.711c-.013-1.427.289-2.539.903-3.338.602-.786,1.343-1.179,2.222-1.179.831,0,1.548.378,2.15,1.134.602.756.921,1.883.957,3.383h-6.232Z"/>
  </g>
</svg>